<?xml version="1.0" encoding="utf-8"?><svg version="1.1" id="Layer_1" xmlns="http://www.w3.org/2000/svg" xmlns:xlink="http://www.w3.org/1999/xlink" x="0px" y="0px" viewBox="0 0 122.88 79.52" style="enable-background:new 0 0 122.88 79.52" xml:space="preserve"><g><path d="M54.29,55.78v23.7h-2.97v-24.9l-3.76-1.53l-7.95,8.67h-2.22l-7.95-8.67l-3.76,1.53v24.9h-2.97v-23.7l-5.6,2.3v21.39h-2.97 V59.28l-4.09,1.66c-2.2,1.2-3.89,2.68-5.06,4.4c-1.18,1.71-1.84,3.68-2.02,5.96v8.17H0v-8.2v-0.1c0.2-2.79,1.02-5.24,2.51-7.39 c1.43-2.12,3.48-3.89,6.09-5.32c0.05-0.03,0.13-0.08,0.2-0.1l19.33-7.9v-5.65c-0.2-0.18-0.38-0.33-0.56-0.54 c-2.69-2.66-4.5-6.62-5.04-12.58l-0.97-1c-0.31-0.26-0.49-0.64-0.49-1.05v-2.3h2.97v1.76l1,1.02c0.26,0.26,0.38,0.56,0.41,0.87 c0.41,5.52,1.94,9.05,4.24,11.3c2.23,2.17,5.24,3.25,8.67,3.78c3.68-0.59,6.6-2.17,8.67-4.6c2.22-2.58,3.55-6.14,3.99-10.51 c0.03-0.28,0.13-0.54,0.31-0.74l0.89-1.1l0.03-1.89l2.94,0.03l-0.03,2.28c0.03,0.33-0.08,0.69-0.31,0.97l-0.95,1.18 c-0.51,4.76-2.07,8.69-4.6,11.64c-0.38,0.43-0.77,0.84-1.18,1.25v5.68l20,8.16c0.08,0.03,0.13,0.05,0.2,0.1 c2.61,1.43,4.65,3.22,6.09,5.32c1.46,2.15,2.3,4.6,2.51,7.39v8.3h-2.97v-8.2c-0.18-2.28-0.84-4.25-2.02-5.96 c-1.18-1.71-2.86-3.2-5.06-4.4l-4.09-1.66V79.5h-2.97V58.1l-5.6-2.3L54.29,55.78L54.29,55.78z M100.25,55.78v23.7h-2.97v-24.9 l-3.76-1.53l-7.95,8.67h-2.22l-7.95-8.67l-3.76,1.53v1.53c-1.05-0.94-2.24-1.99-3.58-3.18l6.04-2.47v-5.65 c-0.2-0.18-0.38-0.33-0.56-0.54c-2.69-2.66-4.5-6.62-5.04-12.58l-0.97-1c-0.31-0.26-0.49-0.64-0.49-1.05v-2.3H70v1.76l1,1.02 c0.26,0.26,0.38,0.56,0.41,0.87c0.41,5.52,1.94,9.05,4.24,11.3c2.23,2.17,5.24,3.25,8.67,3.78c3.68-0.59,6.6-2.17,8.67-4.6 c2.22-2.58,3.55-6.14,3.99-10.51c0.03-0.28,0.13-0.54,0.31-0.74l0.89-1.1l0.03-1.89l2.94,0.03l-0.03,2.28 c0.03,0.33-0.08,0.69-0.31,0.97l-0.95,1.18c-0.51,4.76-2.07,8.69-4.6,11.64c-0.38,0.43-0.77,0.84-1.18,1.25v5.68l20,8.16 c0.08,0.03,0.13,0.05,0.2,0.1c2.61,1.43,4.65,3.22,6.09,5.32c1.46,2.15,2.3,4.6,2.51,7.39v8.3h-2.97v-8.2 c-0.18-2.28-0.84-4.25-2.02-5.96c-1.18-1.71-2.86-3.2-5.06-4.4l-4.09-1.66V79.5h-2.97V58.1l-5.6-2.3L100.25,55.78L100.25,55.78z M78.1,4.2c-0.18,0-0.33-0.03-0.49-0.08c-4.3,1.92-7.77,6.14-8.72,13.17c-0.1,0.77-0.84,1.33-1.64,1.23 c-0.82-0.1-1.38-0.79-1.28-1.59c1.1-8.21,5.32-13.17,10.51-15.45c2.63-1.15,5.47-1.61,8.31-1.46c2.81,0.15,5.63,0.92,8.13,2.22 c5.32,2.76,9.38,7.93,9.67,14.78c0.03,0.79-0.61,1.43-1.41,1.46c-0.82,0.03-1.51-0.59-1.53-1.35C99.4,11.38,96,7.06,91.53,4.73 c-0.18-0.1-0.38-0.2-0.59-0.28c-0.15,0.05-0.33,0.08-0.54,0.08c-1.33-0.03-1.69,2.35-1.76,5.57c-0.03,1.43,0,3.02,0.03,4.65 c0.03,1.28,0.05,2.61,0.05,3.48c0,0.79-0.67,1.43-1.46,1.43c-0.82,0-1.46-0.64-1.46-1.43c0-1.43-0.03-2.43-0.05-3.43 c-0.03-1.66-0.05-3.27-0.03-4.76c0.08-2.92,0.41-5.34,1.48-6.85c-0.84-0.18-1.71-0.31-2.61-0.36c-1.1-0.05-2.2-0.03-3.27,0.15 c0.97,1.51,1.3,3.94,1.38,6.78c0.05,1.53,0,3.22-0.03,4.94c-0.03,1.02-0.05,2.07-0.05,3.53c0,0.79-0.64,1.43-1.43,1.43 c-0.79,0-1.43-0.64-1.43-1.43c0-0.89,0.03-2.25,0.05-3.58c0.03-1.69,0.05-3.32,0.03-4.83c-0.08-3.3-0.43-5.73-1.82-5.7L78.1,4.2 L78.1,4.2z M77.1,46.8v3.76l7.36,8.03l6.7-7.31v-4.6c-1.89,1.1-4.07,1.84-6.52,2.2c-0.15,0.03-0.33,0.03-0.49,0 c-2.56-0.38-4.94-1.02-7.06-2.1V46.8L77.1,46.8z M66.11,18.82c0.38,0.82,1.13,1.53,2.15,2.17c3.27,2.05,9.03,3.04,14.99,3.04 c5.98,0.03,12.1-0.95,16.03-2.81c1.53-0.74,2.71-1.59,3.3-2.53l2.53,1.46c-0.9,1.43-2.48,2.66-4.53,3.63 c-4.32,2.05-10.92,3.12-17.34,3.09c-6.47-0.03-12.81-1.15-16.57-3.5c-1.48-0.92-2.58-2.05-3.22-3.35l2.68-1.18L66.11,18.82 L66.11,18.82z M82.42,65.13H86v3.45h-3.58V65.13L82.42,65.13z M82.42,73.93H86v3.45h-3.58V73.93L82.42,73.93z M32.14,4.2 c-0.18,0-0.33-0.03-0.49-0.08c-4.3,1.92-7.77,6.14-8.72,13.17c-0.1,0.77-0.84,1.33-1.64,1.23c-0.82-0.1-1.38-0.79-1.28-1.59 c1.1-8.21,5.32-13.17,10.51-15.45c2.63-1.15,5.47-1.61,8.31-1.46c2.81,0.15,5.63,0.92,8.13,2.22c5.32,2.76,9.38,7.93,9.67,14.78 c0.03,0.79-0.61,1.43-1.41,1.46c-0.82,0.03-1.51-0.59-1.53-1.35c-0.26-5.75-3.66-10.08-8.13-12.4c-0.18-0.1-0.38-0.2-0.59-0.28 c-0.15,0.05-0.33,0.08-0.54,0.08c-1.33-0.03-1.69,2.35-1.76,5.57c-0.03,1.43,0,3.02,0.03,4.65c0.03,1.28,0.05,2.61,0.05,3.48 c0,0.79-0.67,1.43-1.46,1.43c-0.82,0-1.46-0.64-1.46-1.43c0-1.43-0.03-2.43-0.05-3.43c-0.03-1.66-0.05-3.27-0.03-4.76 c0.08-2.92,0.41-5.34,1.48-6.85c-0.84-0.18-1.71-0.31-2.61-0.36c-1.1-0.05-2.2-0.03-3.27,0.15c0.97,1.51,1.3,3.94,1.38,6.78 c0.05,1.53,0,3.22-0.03,4.94c-0.03,1.02-0.05,2.07-0.05,3.53c0,0.79-0.64,1.43-1.43,1.43c-0.79,0-1.43-0.64-1.43-1.43 c0-0.89,0.03-2.25,0.05-3.58c0.03-1.69,0.05-3.32,0.03-4.83c-0.08-3.3-0.43-5.73-1.82-5.7L32.14,4.2L32.14,4.2z M31.15,46.8v3.76 l7.36,8.03l6.7-7.31v-4.6c-1.89,1.1-4.07,1.84-6.52,2.2c-0.15,0.03-0.33,0.03-0.49,0c-2.56-0.38-4.94-1.02-7.06-2.1V46.8 L31.15,46.8z M20.15,18.82c0.38,0.82,1.13,1.53,2.15,2.17c3.27,2.05,9.03,3.04,14.99,3.04c5.98,0.03,12.1-0.95,16.03-2.81 c1.53-0.74,2.71-1.59,3.3-2.53l2.53,1.46c-0.9,1.43-2.48,2.66-4.53,3.63c-4.32,2.05-10.92,3.12-17.34,3.09 c-6.47-0.03-12.81-1.15-16.57-3.5c-1.48-0.92-2.58-2.05-3.22-3.35l2.68-1.18L20.15,18.82L20.15,18.82z M36.47,65.13h3.58v3.45 h-3.58V65.13L36.47,65.13z M36.47,73.93h3.58v3.45h-3.58V73.93L36.47,73.93z"/></g></svg>