<?xml version="1.0" encoding="utf-8"?><svg version="1.1" id="Layer_1" xmlns="http://www.w3.org/2000/svg" xmlns:xlink="http://www.w3.org/1999/xlink" x="0px" y="0px" width="50px" height="50px" viewBox="0 0 122.88 122.88" style="enable-background:new 0 0 122.88 122.88" xml:space="preserve"><style type="text/css"><![CDATA[
	.st0{fill-rule:evenodd;clip-rule:evenodd;fill:#FF7900;}
]]></style><g><path class="st0" d="M61.44,0c33.93,0,61.44,27.51,61.44,61.44c0,33.93-27.51,61.44-61.44,61.44C27.51,122.88,0,95.37,0,61.44 C0,27.51,27.51,0,61.44,0L61.44,0z M54.22,37.65c0-9.43,14.37-9.44,14.37,0.02v25.75l16.23,8.59c0.08,0.04,0.16,0.09,0.23,0.15 l0.14,0.1c7.54,4.94,0.53,16.81-7.53,12.15l-0.03-0.02L57.99,73.87c-2.3-1.23-3.79-3.67-3.79-6.29l0.01,0L54.22,37.65L54.22,37.65z"/></g></svg>