<svg id="Layer_1" data-name="Layer 1" xmlns="http://www.w3.org/2000/svg" viewBox="0 0 108.6 122.88"><defs><style>.cls-1{fill:#25d366;}.cls-1,.cls-2,.cls-4{fill-rule:evenodd;}.cls-2{fill:#075e54;}.cls-3,.cls-4{fill:#fff;}</style></defs><title>whatsapp-video-call</title><path class="cls-1" d="M102.74,0H5.87A5.89,5.89,0,0,0,0,5.87V76.06H108.6V5.87A5.88,5.88,0,0,0,102.74,0Z"/><path class="cls-2" d="M0,79.34V117a5.89,5.89,0,0,0,5.87,5.87h96.87A5.88,5.88,0,0,0,108.6,117V79.34Z"/><path class="cls-3" d="M62.8,41.73c-.47-.23-2.74-1.34-3.16-1.5s-.72-.23-1,.23S57.4,42,57.14,42.27s-.54.35-1,.12a13,13,0,0,1-3.72-2.3,14.06,14.06,0,0,1-2.57-3.2c-.28-.46,0-.71.21-.93s.46-.54.69-.81a3.41,3.41,0,0,0,.46-.77.82.82,0,0,0,0-.81c-.11-.23-1-2.5-1.42-3.43s-.76-.78-1-.8h-.88a1.7,1.7,0,0,0-1.23.58A5.15,5.15,0,0,0,45,33.77a9.12,9.12,0,0,0,1.88,4.79c.23.3,3.26,5,7.89,7,1.1.48,2,.76,2.63,1a6.47,6.47,0,0,0,2.91.18c.89-.13,2.74-1.12,3.13-2.2a3.79,3.79,0,0,0,.27-2.2c-.11-.21-.42-.31-.89-.56ZM67.46,24.8a18.49,18.49,0,0,0-29.1,22.31l-2.63,9.58,9.8-2.57a18.55,18.55,0,0,0,8.84,2.25h0A18.49,18.49,0,0,0,67.46,24.8ZM54.37,53.25a15.33,15.33,0,0,1-7.83-2.14L46,50.77,40.16,52.3l1.55-5.67-.36-.58A15.22,15.22,0,0,1,39,37.87,15.37,15.37,0,1,1,54.37,53.25Z"/><path class="cls-4" d="M43.57,91.1H55.42A4.61,4.61,0,0,1,60,95.69v10.84a4.6,4.6,0,0,1-4.59,4.58H43.57A4.6,4.6,0,0,1,39,106.53V95.69a4.61,4.61,0,0,1,4.59-4.59Z"/><path class="cls-4" d="M66,93.36l-3.8,3.49-.3.28v8.26l3.74,3.22c3.14,2.71,4,0,4-3.37V96.92c0-2.4-.83-6.15-3.66-3.56Z"/></svg>